<svg width="213" height="55" viewBox="0 0 213 55" fill="none" xmlns="http://www.w3.org/2000/svg">
<mask id="path-1-outside-1_11_192" maskUnits="userSpaceOnUse" x="0.438965" y="0.228027" width="213" height="55" fill="black">
<rect fill="white" x="0.438965" y="0.228027" width="213" height="55"/>
<path d="M31.9941 24.708V30.6406H15.5806V24.708H31.9941ZM18.1514 12.0078V44H10.439V12.0078H18.1514ZM37.1797 12.0078V44H29.4893V12.0078H37.1797Z"/>
<path d="M40.8052 32.3545V31.8931C40.8052 30.1499 41.0542 28.5459 41.5522 27.0811C42.0503 25.6016 42.7827 24.3198 43.7495 23.2358C44.7163 22.1519 45.9102 21.3096 47.3311 20.709C48.752 20.0938 50.3926 19.7861 52.2529 19.7861C54.1279 19.7861 55.7759 20.0938 57.1968 20.709C58.6323 21.3096 59.8335 22.1519 60.8003 23.2358C61.7671 24.3198 62.4995 25.6016 62.9976 27.0811C63.4956 28.5459 63.7446 30.1499 63.7446 31.8931V32.3545C63.7446 34.083 63.4956 35.687 62.9976 37.1665C62.4995 38.6313 61.7671 39.9131 60.8003 41.0117C59.8335 42.0957 58.6396 42.938 57.2188 43.5386C55.7979 44.1392 54.1572 44.4395 52.2969 44.4395C50.4365 44.4395 48.7886 44.1392 47.353 43.5386C45.9175 42.938 44.7163 42.0957 43.7495 41.0117C42.7827 39.9131 42.0503 38.6313 41.5522 37.1665C41.0542 35.687 40.8052 34.083 40.8052 32.3545ZM48.21 31.8931V32.3545C48.21 33.248 48.2759 34.083 48.4077 34.8594C48.5396 35.6357 48.7593 36.3169 49.0669 36.9028C49.3745 37.4741 49.792 37.9209 50.3193 38.2432C50.8467 38.5654 51.5059 38.7266 52.2969 38.7266C53.0732 38.7266 53.7178 38.5654 54.2305 38.2432C54.7578 37.9209 55.1753 37.4741 55.4829 36.9028C55.7905 36.3169 56.0103 35.6357 56.1421 34.8594C56.2739 34.083 56.3398 33.248 56.3398 32.3545V31.8931C56.3398 31.0288 56.2739 30.2158 56.1421 29.4541C56.0103 28.6777 55.7905 27.9966 55.4829 27.4106C55.1753 26.8101 54.7578 26.3413 54.2305 26.0044C53.7031 25.6675 53.0439 25.499 52.2529 25.499C51.4766 25.499 50.8247 25.6675 50.2974 26.0044C49.7847 26.3413 49.3745 26.8101 49.0669 27.4106C48.7593 27.9966 48.5396 28.6777 48.4077 29.4541C48.2759 30.2158 48.21 31.0288 48.21 31.8931Z"/>
<path d="M79.5649 20.2256V25.3672H65.2388V20.2256H79.5649ZM68.249 14.3149H75.6538V36.2437C75.6538 36.8735 75.7271 37.3643 75.8735 37.7158C76.02 38.0527 76.269 38.2944 76.6206 38.4409C76.9868 38.5728 77.4702 38.6387 78.0708 38.6387C78.4956 38.6387 78.8472 38.6313 79.1255 38.6167C79.4038 38.5874 79.6675 38.5508 79.9165 38.5068V43.8022C79.2866 44.0073 78.6274 44.1611 77.939 44.2637C77.2505 44.3809 76.5181 44.4395 75.7417 44.4395C74.1597 44.4395 72.8047 44.1904 71.6768 43.6924C70.5635 43.1943 69.7139 42.4106 69.1279 41.3413C68.542 40.272 68.249 38.8804 68.249 37.1665V14.3149Z"/>
<path d="M94.0229 44.4395C92.0894 44.4395 90.3608 44.1392 88.8374 43.5386C87.314 42.9233 86.0249 42.0811 84.9702 41.0117C83.9302 39.9424 83.1318 38.7119 82.5752 37.3203C82.0332 35.9287 81.7622 34.4565 81.7622 32.9038V32.0688C81.7622 30.3257 82.0039 28.7144 82.4873 27.2349C82.9707 25.7407 83.6885 24.437 84.6406 23.3237C85.5928 22.2104 86.7866 21.3462 88.2222 20.731C89.6577 20.1011 91.3276 19.7861 93.2319 19.7861C94.9165 19.7861 96.4253 20.0571 97.7583 20.5991C99.0913 21.1411 100.219 21.9175 101.142 22.9282C102.08 23.939 102.79 25.1621 103.273 26.5977C103.771 28.0332 104.021 29.6445 104.021 31.4316V34.4419H84.5967V29.8057H96.7915V29.2344C96.8062 28.4434 96.667 27.7695 96.374 27.2129C96.0957 26.6562 95.6855 26.2314 95.1436 25.9385C94.6016 25.6455 93.9424 25.499 93.166 25.499C92.3604 25.499 91.6938 25.6748 91.1665 26.0264C90.6538 26.3779 90.251 26.8613 89.958 27.4766C89.6797 28.0771 89.4819 28.7729 89.3647 29.564C89.2476 30.355 89.189 31.1899 89.189 32.0688V32.9038C89.189 33.7827 89.3062 34.5811 89.5405 35.2988C89.7896 36.0166 90.1411 36.6318 90.5952 37.1445C91.064 37.6426 91.6206 38.0308 92.2651 38.3091C92.9243 38.5874 93.6714 38.7266 94.5063 38.7266C95.5171 38.7266 96.5132 38.5361 97.4946 38.1553C98.4761 37.7744 99.3184 37.1445 100.021 36.2656L103.383 40.2646C102.9 40.9531 102.211 41.6196 101.318 42.2642C100.439 42.9087 99.3843 43.436 98.1538 43.8462C96.9233 44.2417 95.5464 44.4395 94.0229 44.4395Z"/>
<path d="M114.853 10.25V44H107.426V10.25H114.853Z"/>
<path d="M131.882 37.3203C131.882 36.9102 131.743 36.5586 131.464 36.2656C131.201 35.958 130.732 35.6797 130.058 35.4307C129.384 35.167 128.439 34.9033 127.224 34.6396C126.066 34.3906 124.975 34.061 123.95 33.6509C122.939 33.2407 122.053 32.7427 121.291 32.1567C120.529 31.5708 119.929 30.875 119.489 30.0693C119.064 29.2637 118.852 28.3408 118.852 27.3008C118.852 26.29 119.064 25.3379 119.489 24.4443C119.929 23.5361 120.566 22.7378 121.401 22.0493C122.25 21.3462 123.283 20.7969 124.499 20.4014C125.715 19.9912 127.099 19.7861 128.652 19.7861C130.791 19.7861 132.636 20.1157 134.189 20.7749C135.742 21.4194 136.936 22.3276 137.771 23.4995C138.62 24.6567 139.045 25.9971 139.045 27.5205H131.64C131.64 26.9199 131.538 26.4072 131.333 25.9824C131.142 25.5576 130.827 25.2354 130.388 25.0156C129.948 24.7812 129.362 24.6641 128.63 24.6641C128.117 24.6641 127.648 24.7593 127.224 24.9497C126.813 25.1401 126.484 25.4038 126.235 25.7407C125.986 26.0776 125.861 26.4731 125.861 26.9272C125.861 27.2495 125.935 27.5425 126.081 27.8062C126.242 28.0552 126.484 28.2896 126.806 28.5093C127.128 28.7144 127.539 28.9048 128.037 29.0806C128.535 29.2417 129.135 29.3882 129.838 29.52C131.435 29.813 132.929 30.2305 134.321 30.7725C135.712 31.3145 136.84 32.0835 137.705 33.0796C138.583 34.0757 139.023 35.416 139.023 37.1006C139.023 38.1553 138.781 39.1294 138.298 40.0229C137.814 40.9019 137.119 41.6782 136.21 42.3521C135.302 43.0112 134.211 43.5239 132.937 43.8901C131.662 44.2563 130.227 44.4395 128.63 44.4395C126.359 44.4395 124.44 44.0366 122.873 43.231C121.306 42.4106 120.119 41.3853 119.313 40.1548C118.522 38.9097 118.127 37.6499 118.127 36.3755H125.026C125.056 37.1079 125.231 37.7085 125.554 38.1772C125.891 38.646 126.337 38.9902 126.894 39.21C127.451 39.4297 128.095 39.5396 128.828 39.5396C129.501 39.5396 130.058 39.4443 130.498 39.2539C130.952 39.0635 131.296 38.8071 131.53 38.4849C131.765 38.1479 131.882 37.7598 131.882 37.3203Z"/>
<path d="M142.978 40.5283C142.978 39.4736 143.359 38.5947 144.121 37.8916C144.882 37.1738 145.864 36.8149 147.065 36.8149C148.281 36.8149 149.262 37.1738 150.009 37.8916C150.771 38.5947 151.152 39.4736 151.152 40.5283C151.152 41.583 150.771 42.4692 150.009 43.187C149.262 43.8901 148.281 44.2417 147.065 44.2417C145.864 44.2417 144.882 43.8901 144.121 43.187C143.359 42.4692 142.978 41.583 142.978 40.5283Z"/>
<path d="M163.94 10.25V44H156.513V10.25H163.94Z"/>
<path d="M175.981 10.228V44H168.576V10.228H175.981ZM191.186 20.2256L180.859 32.3325L175.454 37.7378L172.224 33.0356L176.728 27.1689L182.309 20.2256H191.186ZM183.254 44L176.904 33.1675L182.375 29.2783L191.735 44H183.254Z"/>
</mask>
<path d="M31.9941 24.708V30.6406H15.5806V24.708H31.9941ZM18.1514 12.0078V44H10.439V12.0078H18.1514ZM37.1797 12.0078V44H29.4893V12.0078H37.1797Z" fill="#6C3483"/>
<path d="M40.8052 32.3545V31.8931C40.8052 30.1499 41.0542 28.5459 41.5522 27.0811C42.0503 25.6016 42.7827 24.3198 43.7495 23.2358C44.7163 22.1519 45.9102 21.3096 47.3311 20.709C48.752 20.0938 50.3926 19.7861 52.2529 19.7861C54.1279 19.7861 55.7759 20.0938 57.1968 20.709C58.6323 21.3096 59.8335 22.1519 60.8003 23.2358C61.7671 24.3198 62.4995 25.6016 62.9976 27.0811C63.4956 28.5459 63.7446 30.1499 63.7446 31.8931V32.3545C63.7446 34.083 63.4956 35.687 62.9976 37.1665C62.4995 38.6313 61.7671 39.9131 60.8003 41.0117C59.8335 42.0957 58.6396 42.938 57.2188 43.5386C55.7979 44.1392 54.1572 44.4395 52.2969 44.4395C50.4365 44.4395 48.7886 44.1392 47.353 43.5386C45.9175 42.938 44.7163 42.0957 43.7495 41.0117C42.7827 39.9131 42.0503 38.6313 41.5522 37.1665C41.0542 35.687 40.8052 34.083 40.8052 32.3545ZM48.21 31.8931V32.3545C48.21 33.248 48.2759 34.083 48.4077 34.8594C48.5396 35.6357 48.7593 36.3169 49.0669 36.9028C49.3745 37.4741 49.792 37.9209 50.3193 38.2432C50.8467 38.5654 51.5059 38.7266 52.2969 38.7266C53.0732 38.7266 53.7178 38.5654 54.2305 38.2432C54.7578 37.9209 55.1753 37.4741 55.4829 36.9028C55.7905 36.3169 56.0103 35.6357 56.1421 34.8594C56.2739 34.083 56.3398 33.248 56.3398 32.3545V31.8931C56.3398 31.0288 56.2739 30.2158 56.1421 29.4541C56.0103 28.6777 55.7905 27.9966 55.4829 27.4106C55.1753 26.8101 54.7578 26.3413 54.2305 26.0044C53.7031 25.6675 53.0439 25.499 52.2529 25.499C51.4766 25.499 50.8247 25.6675 50.2974 26.0044C49.7847 26.3413 49.3745 26.8101 49.0669 27.4106C48.7593 27.9966 48.5396 28.6777 48.4077 29.4541C48.2759 30.2158 48.21 31.0288 48.21 31.8931Z" fill="#6C3483"/>
<path d="M79.5649 20.2256V25.3672H65.2388V20.2256H79.5649ZM68.249 14.3149H75.6538V36.2437C75.6538 36.8735 75.7271 37.3643 75.8735 37.7158C76.02 38.0527 76.269 38.2944 76.6206 38.4409C76.9868 38.5728 77.4702 38.6387 78.0708 38.6387C78.4956 38.6387 78.8472 38.6313 79.1255 38.6167C79.4038 38.5874 79.6675 38.5508 79.9165 38.5068V43.8022C79.2866 44.0073 78.6274 44.1611 77.939 44.2637C77.2505 44.3809 76.5181 44.4395 75.7417 44.4395C74.1597 44.4395 72.8047 44.1904 71.6768 43.6924C70.5635 43.1943 69.7139 42.4106 69.1279 41.3413C68.542 40.272 68.249 38.8804 68.249 37.1665V14.3149Z" fill="#6C3483"/>
<path d="M94.0229 44.4395C92.0894 44.4395 90.3608 44.1392 88.8374 43.5386C87.314 42.9233 86.0249 42.0811 84.9702 41.0117C83.9302 39.9424 83.1318 38.7119 82.5752 37.3203C82.0332 35.9287 81.7622 34.4565 81.7622 32.9038V32.0688C81.7622 30.3257 82.0039 28.7144 82.4873 27.2349C82.9707 25.7407 83.6885 24.437 84.6406 23.3237C85.5928 22.2104 86.7866 21.3462 88.2222 20.731C89.6577 20.1011 91.3276 19.7861 93.2319 19.7861C94.9165 19.7861 96.4253 20.0571 97.7583 20.5991C99.0913 21.1411 100.219 21.9175 101.142 22.9282C102.08 23.939 102.79 25.1621 103.273 26.5977C103.771 28.0332 104.021 29.6445 104.021 31.4316V34.4419H84.5967V29.8057H96.7915V29.2344C96.8062 28.4434 96.667 27.7695 96.374 27.2129C96.0957 26.6562 95.6855 26.2314 95.1436 25.9385C94.6016 25.6455 93.9424 25.499 93.166 25.499C92.3604 25.499 91.6938 25.6748 91.1665 26.0264C90.6538 26.3779 90.251 26.8613 89.958 27.4766C89.6797 28.0771 89.4819 28.7729 89.3647 29.564C89.2476 30.355 89.189 31.1899 89.189 32.0688V32.9038C89.189 33.7827 89.3062 34.5811 89.5405 35.2988C89.7896 36.0166 90.1411 36.6318 90.5952 37.1445C91.064 37.6426 91.6206 38.0308 92.2651 38.3091C92.9243 38.5874 93.6714 38.7266 94.5063 38.7266C95.5171 38.7266 96.5132 38.5361 97.4946 38.1553C98.4761 37.7744 99.3184 37.1445 100.021 36.2656L103.383 40.2646C102.9 40.9531 102.211 41.6196 101.318 42.2642C100.439 42.9087 99.3843 43.436 98.1538 43.8462C96.9233 44.2417 95.5464 44.4395 94.0229 44.4395Z" fill="#6C3483"/>
<path d="M114.853 10.25V44H107.426V10.25H114.853Z" fill="#6C3483"/>
<path d="M131.882 37.3203C131.882 36.9102 131.743 36.5586 131.464 36.2656C131.201 35.958 130.732 35.6797 130.058 35.4307C129.384 35.167 128.439 34.9033 127.224 34.6396C126.066 34.3906 124.975 34.061 123.95 33.6509C122.939 33.2407 122.053 32.7427 121.291 32.1567C120.529 31.5708 119.929 30.875 119.489 30.0693C119.064 29.2637 118.852 28.3408 118.852 27.3008C118.852 26.29 119.064 25.3379 119.489 24.4443C119.929 23.5361 120.566 22.7378 121.401 22.0493C122.25 21.3462 123.283 20.7969 124.499 20.4014C125.715 19.9912 127.099 19.7861 128.652 19.7861C130.791 19.7861 132.636 20.1157 134.189 20.7749C135.742 21.4194 136.936 22.3276 137.771 23.4995C138.62 24.6567 139.045 25.9971 139.045 27.5205H131.64C131.64 26.9199 131.538 26.4072 131.333 25.9824C131.142 25.5576 130.827 25.2354 130.388 25.0156C129.948 24.7812 129.362 24.6641 128.63 24.6641C128.117 24.6641 127.648 24.7593 127.224 24.9497C126.813 25.1401 126.484 25.4038 126.235 25.7407C125.986 26.0776 125.861 26.4731 125.861 26.9272C125.861 27.2495 125.935 27.5425 126.081 27.8062C126.242 28.0552 126.484 28.2896 126.806 28.5093C127.128 28.7144 127.539 28.9048 128.037 29.0806C128.535 29.2417 129.135 29.3882 129.838 29.52C131.435 29.813 132.929 30.2305 134.321 30.7725C135.712 31.3145 136.84 32.0835 137.705 33.0796C138.583 34.0757 139.023 35.416 139.023 37.1006C139.023 38.1553 138.781 39.1294 138.298 40.0229C137.814 40.9019 137.119 41.6782 136.21 42.3521C135.302 43.0112 134.211 43.5239 132.937 43.8901C131.662 44.2563 130.227 44.4395 128.63 44.4395C126.359 44.4395 124.44 44.0366 122.873 43.231C121.306 42.4106 120.119 41.3853 119.313 40.1548C118.522 38.9097 118.127 37.6499 118.127 36.3755H125.026C125.056 37.1079 125.231 37.7085 125.554 38.1772C125.891 38.646 126.337 38.9902 126.894 39.21C127.451 39.4297 128.095 39.5396 128.828 39.5396C129.501 39.5396 130.058 39.4443 130.498 39.2539C130.952 39.0635 131.296 38.8071 131.53 38.4849C131.765 38.1479 131.882 37.7598 131.882 37.3203Z" fill="#6C3483"/>
<path d="M142.978 40.5283C142.978 39.4736 143.359 38.5947 144.121 37.8916C144.882 37.1738 145.864 36.8149 147.065 36.8149C148.281 36.8149 149.262 37.1738 150.009 37.8916C150.771 38.5947 151.152 39.4736 151.152 40.5283C151.152 41.583 150.771 42.4692 150.009 43.187C149.262 43.8901 148.281 44.2417 147.065 44.2417C145.864 44.2417 144.882 43.8901 144.121 43.187C143.359 42.4692 142.978 41.583 142.978 40.5283Z" fill="#6C3483"/>
<path d="M163.94 10.25V44H156.513V10.25H163.94Z" fill="#6C3483"/>
<path d="M175.981 10.228V44H168.576V10.228H175.981ZM191.186 20.2256L180.859 32.3325L175.454 37.7378L172.224 33.0356L176.728 27.1689L182.309 20.2256H191.186ZM183.254 44L176.904 33.1675L182.375 29.2783L191.735 44H183.254Z" fill="#6C3483"/>
<path d="M31.9941 24.708V30.6406H15.5806V24.708H31.9941ZM18.1514 12.0078V44H10.439V12.0078H18.1514ZM37.1797 12.0078V44H29.4893V12.0078H37.1797Z" stroke="#FFC300" stroke-width="20" mask="url(#path-1-outside-1_11_192)"/>
<path d="M40.8052 32.3545V31.8931C40.8052 30.1499 41.0542 28.5459 41.5522 27.0811C42.0503 25.6016 42.7827 24.3198 43.7495 23.2358C44.7163 22.1519 45.9102 21.3096 47.3311 20.709C48.752 20.0938 50.3926 19.7861 52.2529 19.7861C54.1279 19.7861 55.7759 20.0938 57.1968 20.709C58.6323 21.3096 59.8335 22.1519 60.8003 23.2358C61.7671 24.3198 62.4995 25.6016 62.9976 27.0811C63.4956 28.5459 63.7446 30.1499 63.7446 31.8931V32.3545C63.7446 34.083 63.4956 35.687 62.9976 37.1665C62.4995 38.6313 61.7671 39.9131 60.8003 41.0117C59.8335 42.0957 58.6396 42.938 57.2188 43.5386C55.7979 44.1392 54.1572 44.4395 52.2969 44.4395C50.4365 44.4395 48.7886 44.1392 47.353 43.5386C45.9175 42.938 44.7163 42.0957 43.7495 41.0117C42.7827 39.9131 42.0503 38.6313 41.5522 37.1665C41.0542 35.687 40.8052 34.083 40.8052 32.3545ZM48.21 31.8931V32.3545C48.21 33.248 48.2759 34.083 48.4077 34.8594C48.5396 35.6357 48.7593 36.3169 49.0669 36.9028C49.3745 37.4741 49.792 37.9209 50.3193 38.2432C50.8467 38.5654 51.5059 38.7266 52.2969 38.7266C53.0732 38.7266 53.7178 38.5654 54.2305 38.2432C54.7578 37.9209 55.1753 37.4741 55.4829 36.9028C55.7905 36.3169 56.0103 35.6357 56.1421 34.8594C56.2739 34.083 56.3398 33.248 56.3398 32.3545V31.8931C56.3398 31.0288 56.2739 30.2158 56.1421 29.4541C56.0103 28.6777 55.7905 27.9966 55.4829 27.4106C55.1753 26.8101 54.7578 26.3413 54.2305 26.0044C53.7031 25.6675 53.0439 25.499 52.2529 25.499C51.4766 25.499 50.8247 25.6675 50.2974 26.0044C49.7847 26.3413 49.3745 26.8101 49.0669 27.4106C48.7593 27.9966 48.5396 28.6777 48.4077 29.4541C48.2759 30.2158 48.21 31.0288 48.21 31.8931Z" stroke="#FFC300" stroke-width="20" mask="url(#path-1-outside-1_11_192)"/>
<path d="M79.5649 20.2256V25.3672H65.2388V20.2256H79.5649ZM68.249 14.3149H75.6538V36.2437C75.6538 36.8735 75.7271 37.3643 75.8735 37.7158C76.02 38.0527 76.269 38.2944 76.6206 38.4409C76.9868 38.5728 77.4702 38.6387 78.0708 38.6387C78.4956 38.6387 78.8472 38.6313 79.1255 38.6167C79.4038 38.5874 79.6675 38.5508 79.9165 38.5068V43.8022C79.2866 44.0073 78.6274 44.1611 77.939 44.2637C77.2505 44.3809 76.5181 44.4395 75.7417 44.4395C74.1597 44.4395 72.8047 44.1904 71.6768 43.6924C70.5635 43.1943 69.7139 42.4106 69.1279 41.3413C68.542 40.272 68.249 38.8804 68.249 37.1665V14.3149Z" stroke="#FFC300" stroke-width="20" mask="url(#path-1-outside-1_11_192)"/>
<path d="M94.0229 44.4395C92.0894 44.4395 90.3608 44.1392 88.8374 43.5386C87.314 42.9233 86.0249 42.0811 84.9702 41.0117C83.9302 39.9424 83.1318 38.7119 82.5752 37.3203C82.0332 35.9287 81.7622 34.4565 81.7622 32.9038V32.0688C81.7622 30.3257 82.0039 28.7144 82.4873 27.2349C82.9707 25.7407 83.6885 24.437 84.6406 23.3237C85.5928 22.2104 86.7866 21.3462 88.2222 20.731C89.6577 20.1011 91.3276 19.7861 93.2319 19.7861C94.9165 19.7861 96.4253 20.0571 97.7583 20.5991C99.0913 21.1411 100.219 21.9175 101.142 22.9282C102.08 23.939 102.79 25.1621 103.273 26.5977C103.771 28.0332 104.021 29.6445 104.021 31.4316V34.4419H84.5967V29.8057H96.7915V29.2344C96.8062 28.4434 96.667 27.7695 96.374 27.2129C96.0957 26.6562 95.6855 26.2314 95.1436 25.9385C94.6016 25.6455 93.9424 25.499 93.166 25.499C92.3604 25.499 91.6938 25.6748 91.1665 26.0264C90.6538 26.3779 90.251 26.8613 89.958 27.4766C89.6797 28.0771 89.4819 28.7729 89.3647 29.564C89.2476 30.355 89.189 31.1899 89.189 32.0688V32.9038C89.189 33.7827 89.3062 34.5811 89.5405 35.2988C89.7896 36.0166 90.1411 36.6318 90.5952 37.1445C91.064 37.6426 91.6206 38.0308 92.2651 38.3091C92.9243 38.5874 93.6714 38.7266 94.5063 38.7266C95.5171 38.7266 96.5132 38.5361 97.4946 38.1553C98.4761 37.7744 99.3184 37.1445 100.021 36.2656L103.383 40.2646C102.9 40.9531 102.211 41.6196 101.318 42.2642C100.439 42.9087 99.3843 43.436 98.1538 43.8462C96.9233 44.2417 95.5464 44.4395 94.0229 44.4395Z" stroke="#FFC300" stroke-width="20" mask="url(#path-1-outside-1_11_192)"/>
<path d="M114.853 10.25V44H107.426V10.25H114.853Z" stroke="#FFC300" stroke-width="20" mask="url(#path-1-outside-1_11_192)"/>
<path d="M131.882 37.3203C131.882 36.9102 131.743 36.5586 131.464 36.2656C131.201 35.958 130.732 35.6797 130.058 35.4307C129.384 35.167 128.439 34.9033 127.224 34.6396C126.066 34.3906 124.975 34.061 123.95 33.6509C122.939 33.2407 122.053 32.7427 121.291 32.1567C120.529 31.5708 119.929 30.875 119.489 30.0693C119.064 29.2637 118.852 28.3408 118.852 27.3008C118.852 26.29 119.064 25.3379 119.489 24.4443C119.929 23.5361 120.566 22.7378 121.401 22.0493C122.25 21.3462 123.283 20.7969 124.499 20.4014C125.715 19.9912 127.099 19.7861 128.652 19.7861C130.791 19.7861 132.636 20.1157 134.189 20.7749C135.742 21.4194 136.936 22.3276 137.771 23.4995C138.62 24.6567 139.045 25.9971 139.045 27.5205H131.64C131.64 26.9199 131.538 26.4072 131.333 25.9824C131.142 25.5576 130.827 25.2354 130.388 25.0156C129.948 24.7812 129.362 24.6641 128.63 24.6641C128.117 24.6641 127.648 24.7593 127.224 24.9497C126.813 25.1401 126.484 25.4038 126.235 25.7407C125.986 26.0776 125.861 26.4731 125.861 26.9272C125.861 27.2495 125.935 27.5425 126.081 27.8062C126.242 28.0552 126.484 28.2896 126.806 28.5093C127.128 28.7144 127.539 28.9048 128.037 29.0806C128.535 29.2417 129.135 29.3882 129.838 29.52C131.435 29.813 132.929 30.2305 134.321 30.7725C135.712 31.3145 136.84 32.0835 137.705 33.0796C138.583 34.0757 139.023 35.416 139.023 37.1006C139.023 38.1553 138.781 39.1294 138.298 40.0229C137.814 40.9019 137.119 41.6782 136.21 42.3521C135.302 43.0112 134.211 43.5239 132.937 43.8901C131.662 44.2563 130.227 44.4395 128.63 44.4395C126.359 44.4395 124.44 44.0366 122.873 43.231C121.306 42.4106 120.119 41.3853 119.313 40.1548C118.522 38.9097 118.127 37.6499 118.127 36.3755H125.026C125.056 37.1079 125.231 37.7085 125.554 38.1772C125.891 38.646 126.337 38.9902 126.894 39.21C127.451 39.4297 128.095 39.5396 128.828 39.5396C129.501 39.5396 130.058 39.4443 130.498 39.2539C130.952 39.0635 131.296 38.8071 131.53 38.4849C131.765 38.1479 131.882 37.7598 131.882 37.3203Z" stroke="#FFC300" stroke-width="20" mask="url(#path-1-outside-1_11_192)"/>
<path d="M142.978 40.5283C142.978 39.4736 143.359 38.5947 144.121 37.8916C144.882 37.1738 145.864 36.8149 147.065 36.8149C148.281 36.8149 149.262 37.1738 150.009 37.8916C150.771 38.5947 151.152 39.4736 151.152 40.5283C151.152 41.583 150.771 42.4692 150.009 43.187C149.262 43.8901 148.281 44.2417 147.065 44.2417C145.864 44.2417 144.882 43.8901 144.121 43.187C143.359 42.4692 142.978 41.583 142.978 40.5283Z" stroke="#FFC300" stroke-width="20" mask="url(#path-1-outside-1_11_192)"/>
<path d="M163.94 10.25V44H156.513V10.25H163.94Z" stroke="#FFC300" stroke-width="20" mask="url(#path-1-outside-1_11_192)"/>
<path d="M175.981 10.228V44H168.576V10.228H175.981ZM191.186 20.2256L180.859 32.3325L175.454 37.7378L172.224 33.0356L176.728 27.1689L182.309 20.2256H191.186ZM183.254 44L176.904 33.1675L182.375 29.2783L191.735 44H183.254Z" stroke="#FFC300" stroke-width="20" mask="url(#path-1-outside-1_11_192)"/>
</svg>
